<svg height="512" viewBox="0 0 48 48" width="512" xmlns="http://www.w3.org/2000/svg"><g id="Cheers"><path d="m24.26 10.42-12.77-3.42a1 1 0 0 0 -1.16.55l-4.69 10a7 7 0 0 0 .08 6c3.6 7.68 16.22 7.5 18.11-.15.15-.59.08-.06 1.17-12a1 1 0 0 0 -.74-.98zm-2.26 11.89c-.3 3.37-4.3 6-9.06 4.69-4.07-1.08-7.15-5-5.47-8.54l4.33-9.28 11.14 3z" fill="#131239"/><path d="m22.93 12.14-.93 10.17a5.06 5.06 0 0 1 -2.26 3.69c-5.74 4.08-14.94-1.87-12.28-7.54l4.33-9.28z" fill="#f2ebd7"/><path d="m20.73 17.06c-5.8-2.15-4.9 1.83-10.54 0a1 1 0 0 0 -1.19.52l-.61 1.3c-1.39 2.97 1.3 6.22 4.79 7.12 4.16 1.07 7.56-1 7.82-3.83l.38-4.12a1 1 0 0 0 -.65-.99zm-1.73 4.94c-.18 2-3.16 2.68-5.3 2.07s-4.32-2.64-3.53-4.38l.25-.52c5.2 1.39 5.25-1.6 8.89-.51z" fill="#131239"/><path d="m19.31 18.69-.31 3.31c-.12 1.33-1.66 2.29-3.67 2.29-3.1 0-6.09-2.54-5.16-4.6l.25-.52c5.2 1.42 5.25-1.57 8.89-.48z" fill="#fcb138"/><path d="m9 37.76 2.47-9.14a1 1 0 0 1 1.93.52l-2.47 9.14a1 1 0 0 1 -1.93-.52z" fill="#131239"/><path d="m13.64 40c-.18 0 .45.15-7.64-2a1 1 0 0 1 .52-1.94l7.38 2a1 1 0 0 1 -.26 1.94z" fill="#131239"/><path d="m42.36 20.61-4.69-10c-.51-1.13-.81-.59-13.93 2.84a1 1 0 0 0 -.74 1.03c.32 3.42.7 7.59 1 11 .77 8.4 14.44 9.32 18.27 1.14a7 7 0 0 0 .09-6.01zm-1.89 5.18c-3 6.37-13.91 5.76-14.46-.48l-.94-10.17 11.14-3 4.33 9.28a5 5 0 0 1 -.07 4.37z" fill="#131239"/><path d="m40.47 25.79c-3 6.37-13.91 5.76-14.46-.48l-.94-10.17 11.14-3 4.33 9.28a5 5 0 0 1 -.07 4.37z" fill="#f2ebd7"/><path d="m39.63 21.88-.6-1.3a1 1 0 0 0 -1.22-.53c-5.64 1.84-4.74-2.14-10.54 0a1 1 0 0 0 -.65 1l.38 4.16c.26 2.79 3.64 4.9 7.82 3.83 3.4-.92 6.25-4.15 4.81-7.16zm-1.87 2.63c-1.76 3.68-8.48 3.6-8.76.49l-.31-3.34c3.69-1.1 3.65 1.91 8.89.51l.24.52a2 2 0 0 1 -.06 1.82z" fill="#131239"/><path d="m37.76 24.51c-1.76 3.68-8.48 3.6-8.76.49l-.31-3.34c3.69-1.1 3.65 1.91 8.89.51l.24.52a2 2 0 0 1 -.06 1.82z" fill="#fcb138"/><g fill="#131239"><path d="m37.08 41.28-2.47-9.14a1 1 0 0 1 1.93-.52l2.46 9.14a1 1 0 0 1 -1.92.52z"/><path d="m34.36 43a1 1 0 0 1 -.26-2l7.38-2a1 1 0 0 1 .52 2c-8.12 2.16-7.46 2-7.64 2z"/><path d="m22 9c-.54 0-.57-.15-2.71-2.29a1 1 0 0 1 1.42-1.42l2 2a1 1 0 0 1 -.71 1.71z"/><path d="m24 7v-3a1 1 0 0 1 2 0v3a1 1 0 0 1 -2 0z"/><path d="m28 9a1 1 0 0 1 -.71-1.71l2-2a1 1 0 0 1 1.42 1.42c-2.18 2.18-2.17 2.29-2.71 2.29z"/></g></g></svg>